<?xml version="1.0" encoding="utf-8"?>
<!-- Generator: Adobe Illustrator 18.0.0, SVG Export Plug-In . SVG Version: 6.00 Build 0)  -->
<!DOCTYPE svg PUBLIC "-//W3C//DTD SVG 1.1//EN" "http://www.w3.org/Graphics/SVG/1.1/DTD/svg11.dtd">
<svg version="1.1" id="Layer_1" xmlns="http://www.w3.org/2000/svg" xmlns:xlink="http://www.w3.org/1999/xlink" x="0px" y="0px"
	 viewBox="0 0 200 700" style="enable-background:new 0 0 200 700;" xml:space="preserve">
<style type="text/css">
	.st0{fill:none;stroke:#FFFFFF;stroke-width:3;stroke-miterlimit:10;}
	.st1{fill:#FFFFFF;}
</style>
<g>
	<defs>
		<polygon id="SVGID_1_" points="818.2,704.6 -586.2,704.6 -586.2,624.2 -526,588.8 -586.2,553.4 -586.2,-199.6 818.2,-199.6 		"/>
	</defs>
	<clipPath id="SVGID_2_">
		<use xlink:href="#SVGID_1_"  style="overflow:visible;"/>
	</clipPath>
</g>
<g>
	<rect x="33.7" y="356.2" class="st0" width="134" height="134"/>
	<path class="st1" d="M56.6,407.9h18.9v60.7H56.6V407.9z M66.1,377.7c6,0,10.9,4.9,10.9,10.9c0,6-4.9,11-10.9,11
		c-6.1,0-11-4.9-11-11C55.1,382.6,60,377.7,66.1,377.7"/>
	<path class="st1" d="M87.4,407.9h18.1v8.3h0.3c2.5-4.8,8.7-9.8,17.9-9.8c19.1,0,22.6,12.6,22.6,28.9v33.3h-18.9v-29.5
		c0-7-0.1-16.1-9.8-16.1c-9.8,0-11.3,7.7-11.3,15.6v30.1H87.4V407.9z"/>
</g>
</svg>
