<?xml version="1.0" encoding="utf-8"?>
<!-- Generator: Adobe Illustrator 18.0.0, SVG Export Plug-In . SVG Version: 6.00 Build 0)  -->
<!DOCTYPE svg PUBLIC "-//W3C//DTD SVG 1.1//EN" "http://www.w3.org/Graphics/SVG/1.1/DTD/svg11.dtd">
<svg version="1.1" id="Layer_1" xmlns="http://www.w3.org/2000/svg" xmlns:xlink="http://www.w3.org/1999/xlink" x="0px" y="0px"
	 viewBox="0 0 200 700" style="enable-background:new 0 0 200 700;" xml:space="preserve">
<style type="text/css">
	.st0{fill:none;stroke:#FFFFFF;stroke-width:3;stroke-miterlimit:10;}
	.st1{fill:#FFFFFF;}
</style>
<g>
	<defs>
		<polygon id="SVGID_1_" points="818.2,704.6 -586.2,704.6 -586.2,624.2 -526,588.8 -586.2,553.4 -586.2,-199.6 818.2,-199.6 		"/>
	</defs>
	<clipPath id="SVGID_2_">
		<use xlink:href="#SVGID_1_"  style="overflow:visible;"/>
	</clipPath>
</g>
<g>
	<rect x="34.5" y="356.5" class="st0" width="133.4" height="133.4"/>
	<path class="st1" d="M145.6,395.6c-3.3,1.5-6.8,2.4-10.5,2.9c3.8-2.3,6.7-5.8,8-10.1c-3.5,2.1-7.4,3.6-11.6,4.4
		c-3.3-3.5-8.1-5.8-13.3-5.8c-10.1,0-18.2,8.2-18.2,18.2c0,1.4,0.2,2.8,0.5,4.2c-15.2-0.8-28.6-8-37.6-19.1
		c-1.6,2.7-2.5,5.8-2.5,9.2c0,6.3,3.2,11.9,8.1,15.2c-3-0.1-5.8-0.9-8.3-2.3v0.2c0,8.8,6.3,16.2,14.6,17.9c-1.5,0.4-3.1,0.6-4.8,0.6
		c-1.2,0-2.3-0.1-3.4-0.3c2.3,7.3,9.1,12.5,17,12.7c-6.2,4.9-14.1,7.8-22.7,7.8c-1.5,0-2.9-0.1-4.3-0.3c8.1,5.2,17.7,8.2,28,8.2
		c33.6,0,51.9-27.8,51.9-51.9c0-0.8,0-1.6-0.1-2.4C140.1,402.5,143.2,399.2,145.6,395.6z"/>
</g>
</svg>
