<?xml version="1.0" encoding="utf-8"?>
<!-- Generator: Adobe Illustrator 16.0.0, SVG Export Plug-In . SVG Version: 6.00 Build 0)  -->
<!DOCTYPE svg PUBLIC "-//W3C//DTD SVG 1.1//EN" "http://www.w3.org/Graphics/SVG/1.1/DTD/svg11.dtd">
<svg version="1.1" xmlns="http://www.w3.org/2000/svg" xmlns:xlink="http://www.w3.org/1999/xlink" x="0px" y="0px"
	 width="957.353px" height="233.265px" viewBox="0 0 957.353 233.265" enable-background="new 0 0 957.353 233.265"
	 xml:space="preserve">
<g id="Layer_1">
	<g>
		<g>
			<g>
				<g>
					<path fill="#FFFFFF" d="M135.6,181.561c-2.293,5.343-5.486,10.066-9.582,14.171c-4.1,4.109-8.854,7.313-14.261,9.613
						c-5.411,2.299-11.149,3.45-17.208,3.45h-7.863c-6.066,0-11.803-1.151-17.209-3.45c-5.411-2.3-10.123-5.503-14.136-9.613
						c-4.016-4.105-7.168-8.828-9.465-14.171c-2.295-5.336-3.439-11.127-3.439-17.372v-99.32c0-6.076,1.144-11.829,3.439-17.251
						c2.297-5.422,5.449-10.144,9.465-14.169c4.014-4.024,8.726-7.187,14.136-9.489c5.406-2.299,11.144-3.452,17.209-3.452h7.863
						c6.06,0,11.798,1.153,17.208,3.452c5.407,2.302,10.161,5.465,14.261,9.489c4.096,4.026,7.289,8.747,9.582,14.169
						c2.296,5.422,3.443,11.175,3.443,17.251v5.175c0,2.302-0.773,4.19-2.322,5.668c-1.547,1.479-3.377,2.219-5.491,2.219h-10.497
						c-2.118,0-3.947-0.74-5.494-2.219c-1.55-1.478-2.319-3.366-2.319-5.668v-5.175c0-5.091-1.768-9.403-5.299-12.939
						c-3.536-3.532-7.846-5.297-12.937-5.297h-7.889c-5.092,0-9.405,1.766-12.937,5.297c-3.535,3.536-5.299,7.848-5.299,12.939
						v99.32c0,5.094,1.764,9.449,5.299,13.06c3.532,3.616,7.844,5.422,12.937,5.422h7.889c5.091,0,9.401-1.806,12.937-5.422
						c3.531-3.611,5.299-7.966,5.299-13.06v-7.888c0-2.133,0.769-3.943,2.319-5.422c1.547-1.479,3.376-2.218,5.494-2.218h10.497
						c2.114,0,3.943,0.739,5.491,2.218c1.549,1.479,2.322,3.289,2.322,5.422v7.888C139.043,170.434,137.896,176.225,135.6,181.561z"
						/>
					<path fill="#FFFFFF" d="M277.299,198.198c0,2.301-0.738,4.188-2.219,5.667c-1.479,1.479-3.367,2.22-5.669,2.22h-10.35
						c-2.138,0-3.986-0.741-5.546-2.22c-1.562-1.479-2.341-3.366-2.341-5.667v-49.538h-52.249v49.538
						c0,2.301-0.778,4.188-2.338,5.667c-1.563,1.479-3.414,2.22-5.547,2.22h-10.352c-2.301,0-4.189-0.741-5.668-2.22
						c-1.479-1.479-2.216-3.366-2.216-5.667v-63.585l0.244-1.477l27.356-104.249c0.328-1.641,1.232-2.995,2.711-4.066
						c1.479-1.066,3.12-1.601,4.929-1.601h34.01c1.806,0,3.452,0.535,4.93,1.601c1.479,1.072,2.38,2.426,2.712,4.066l27.356,104.249
						l0.245,1.477V198.198z M228.008,49.344h-5.915l-19.221,73.194h44.362L228.008,49.344z"/>
					<path fill="#FFFFFF" d="M406.696,181.561c-2.288,5.343-5.478,10.066-9.564,14.171c-4.088,4.109-8.827,7.313-14.225,9.613
						c-5.395,2.299-11.115,3.45-17.163,3.45h-10.301c-6.212,0-11.975-1.151-17.29-3.45c-5.312-2.3-10.014-5.503-14.1-9.613
						c-4.09-4.105-7.279-8.828-9.565-14.171c-2.288-5.336-3.433-11.127-3.433-17.372v-5.176c0-2.135,0.771-3.982,2.32-5.546
						c1.547-1.56,3.377-2.341,5.493-2.341h10.499c2.114,0,3.943,0.781,5.49,2.341c1.549,1.563,2.323,3.411,2.323,5.546v5.176
						c0,5.094,1.763,9.449,5.299,13.06c3.531,3.616,7.845,5.422,12.938,5.422h10.352c5.091,0,9.402-1.806,12.938-5.422
						c3.531-3.611,5.299-7.966,5.299-13.06v-7.888c0-5.916-1.725-10.845-5.177-14.786c-3.448-3.943-7.803-7.517-13.06-10.722
						c-5.261-3.203-10.929-6.323-17.005-9.364c-6.082-3.039-11.749-6.693-17.006-10.966c-5.259-4.271-9.611-9.366-13.062-15.28
						c-3.45-5.915-5.176-13.389-5.176-22.427v-7.887c0-6.076,1.145-11.829,3.441-17.251c2.294-5.422,5.448-10.144,9.463-14.169
						c4.013-4.024,8.727-7.187,14.133-9.489c5.407-2.299,11.146-3.452,17.21-3.452h5.406c6.06,0,11.799,1.153,17.205,3.452
						c5.408,2.302,10.119,5.465,14.136,9.489c4.014,4.026,7.165,8.747,9.462,14.169c2.294,5.422,3.44,11.175,3.44,17.251v5.175
						c0,2.302-0.781,4.19-2.341,5.668c-1.562,1.479-3.411,2.219-5.544,2.219h-10.35c-2.305,0-4.192-0.74-5.669-2.219
						c-1.479-1.478-2.218-3.366-2.218-5.668v-5.175c0-5.091-1.757-9.403-5.27-12.939c-3.511-3.532-7.8-5.297-12.86-5.297h-5.391
						c-5.063,0-9.35,1.766-12.862,5.297c-3.512,3.536-5.268,7.848-5.268,12.939v7.887c0,5.42,1.759,10.024,5.281,13.801
						c3.518,3.781,7.854,7.188,13.013,10.226c5.157,3.042,10.807,6.125,16.946,9.243c6.14,3.124,11.789,6.863,16.949,11.213
						c5.155,4.356,9.497,9.655,13.015,15.898c3.519,6.244,5.281,13.967,5.281,23.165v7.888
						C410.131,170.434,408.982,176.225,406.696,181.561z"/>
				</g>
			</g>
			<rect x="439.803" y="26.953" fill="#FFFFFF" width="5" height="179"/>
		</g>
		<g>
			<path fill="#FFFFFF" d="M511.202,39.768c-0.928-1.47-2.061-2.704-3.395-3.7c-1.336-0.996-2.807-1.754-4.412-2.275
				c-1.609-0.52-3.294-0.781-5.061-0.781c-3.214,0-5.974,0.612-8.283,1.833c-2.309,1.223-4.198,2.841-5.669,4.854
				c-1.472,2.015-2.559,4.29-3.26,6.824c-0.702,2.536-1.052,5.138-1.052,7.808c0,2.626,0.35,5.218,1.052,7.775
				c0.701,2.558,1.788,4.844,3.26,6.858c1.471,2.014,3.36,3.632,5.669,4.854c2.31,1.222,5.069,1.833,8.283,1.833
				c2.264,0,4.301-0.407,6.112-1.222c1.81-0.815,3.371-1.924,4.685-3.327c1.312-1.403,2.377-3.044,3.191-4.923
				c0.815-1.878,1.335-3.904,1.562-6.077h4.616c-0.316,2.987-1.019,5.681-2.104,8.08c-1.088,2.4-2.49,4.437-4.21,6.11
				c-1.721,1.675-3.745,2.966-6.077,3.871c-2.331,0.905-4.922,1.357-7.775,1.357c-3.801,0-7.14-0.69-10.015-2.07
				c-2.875-1.38-5.263-3.225-7.163-5.534s-3.326-4.979-4.278-8.011c-0.95-3.033-1.425-6.224-1.425-9.575
				c0-3.349,0.475-6.541,1.425-9.574c0.952-3.032,2.378-5.713,4.278-8.046c1.9-2.331,4.288-4.186,7.163-5.567
				c2.875-1.381,6.214-2.071,10.015-2.071c2.311,0,4.561,0.339,6.757,1.018c2.194,0.679,4.187,1.687,5.976,3.022
				c1.788,1.335,3.28,2.977,4.48,4.922c1.199,1.947,1.957,4.188,2.275,6.722h-4.617C512.798,42.902,512.13,41.239,511.202,39.768z"
				/>
			<path fill="#FFFFFF" d="M558.561,30.092v3.938h-28.855v17.519h27.023v3.938h-27.023v19.147h29.196v3.938h-33.814v-48.48H558.561z
				"/>
			<path fill="#FFFFFF" d="M569.969,30.092l28.246,41.011h0.134V30.092h4.619v48.48h-5.162l-28.244-41.011h-0.136v41.011h-4.617
				v-48.48H569.969z"/>
			<path fill="#FFFFFF" d="M645.402,30.092v3.938h-16.906v44.542h-4.616V34.03h-16.84v-3.938H645.402z"/>
			<path fill="#FFFFFF" d="M682.951,30.092v3.938h-28.855v17.519h27.023v3.938h-27.023v19.147h29.195v3.938h-33.814v-48.48H682.951z
				"/>
			<path fill="#FFFFFF" d="M711.468,30.092c1.993,0,3.882,0.25,5.671,0.747c1.787,0.499,3.35,1.256,4.684,2.275
				c1.336,1.019,2.399,2.332,3.192,3.938c0.791,1.607,1.188,3.497,1.188,5.669c0,3.079-0.792,5.75-2.376,8.012
				c-1.585,2.265-3.938,3.713-7.062,4.346v0.136c1.583,0.227,2.897,0.645,3.938,1.256c1.042,0.61,1.89,1.392,2.547,2.342
				c0.655,0.951,1.13,2.048,1.427,3.293c0.294,1.246,0.484,2.592,0.576,4.04c0.045,0.815,0.09,1.811,0.137,2.988
				c0.044,1.177,0.135,2.366,0.271,3.564c0.136,1.2,0.351,2.332,0.646,3.395c0.293,1.064,0.689,1.891,1.188,2.479H722.4
				c-0.271-0.452-0.487-1.007-0.646-1.664c-0.159-0.656-0.272-1.334-0.339-2.037c-0.068-0.701-0.125-1.393-0.171-2.071
				c-0.044-0.679-0.091-1.267-0.135-1.766c-0.091-1.719-0.237-3.428-0.441-5.125s-0.635-3.213-1.29-4.549
				c-0.656-1.335-1.607-2.411-2.852-3.226c-1.246-0.815-2.954-1.176-5.126-1.086h-17.519v21.524h-4.617v-48.48H711.468z
				 M711.13,53.109c1.401,0,2.737-0.214,4.005-0.645c1.268-0.43,2.376-1.052,3.327-1.867c0.951-0.814,1.708-1.799,2.274-2.954
				c0.566-1.154,0.85-2.478,0.85-3.972c0-2.987-0.86-5.34-2.581-7.061c-1.721-1.72-4.345-2.581-7.875-2.581h-17.247v19.08H711.13z"
				/>
			<path fill="#FFFFFF" d="M783.235,30.092v3.938h-26.14v17.519h23.221v3.938h-23.221v23.085h-4.618v-48.48H783.235z"/>
			<path fill="#FFFFFF" d="M787.31,44.758c0.95-3.032,2.376-5.713,4.276-8.046c1.901-2.331,4.289-4.186,7.164-5.567
				c2.873-1.381,6.213-2.071,10.015-2.071c3.803,0,7.13,0.69,9.981,2.071c2.852,1.381,5.229,3.236,7.131,5.567
				c1.9,2.333,3.325,5.014,4.275,8.046c0.951,3.033,1.427,6.225,1.427,9.574c0,3.351-0.476,6.542-1.427,9.575
				c-0.95,3.033-2.375,5.703-4.275,8.011c-1.902,2.309-4.279,4.153-7.131,5.534c-2.852,1.38-6.179,2.07-9.981,2.07
				c-3.802,0-7.142-0.69-10.015-2.07c-2.875-1.38-5.263-3.225-7.164-5.534c-1.9-2.309-3.326-4.979-4.276-8.011
				s-1.426-6.224-1.426-9.575C785.884,50.982,786.359,47.791,787.31,44.758z M791.553,62.106c0.701,2.558,1.787,4.844,3.26,6.858
				c1.471,2.014,3.361,3.632,5.669,4.854c2.309,1.222,5.069,1.833,8.283,1.833s5.964-0.611,8.25-1.833
				c2.286-1.222,4.164-2.84,5.635-4.854s2.558-4.3,3.259-6.858c0.702-2.557,1.054-5.148,1.054-7.775c0-2.67-0.352-5.272-1.054-7.808
				c-0.701-2.535-1.788-4.809-3.259-6.824c-1.471-2.014-3.349-3.632-5.635-4.854c-2.286-1.222-5.036-1.833-8.25-1.833
				s-5.975,0.612-8.283,1.833c-2.308,1.223-4.198,2.841-5.669,4.854c-1.473,2.015-2.559,4.29-3.26,6.824
				c-0.703,2.536-1.053,5.138-1.053,7.808C790.5,56.958,790.85,59.549,791.553,62.106z"/>
			<path fill="#FFFFFF" d="M860.504,30.092c1.992,0,3.88,0.25,5.67,0.747c1.787,0.499,3.35,1.256,4.684,2.275
				c1.335,1.019,2.4,2.332,3.191,3.938c0.792,1.607,1.189,3.497,1.189,5.669c0,3.079-0.793,5.75-2.377,8.012
				c-1.586,2.265-3.938,3.713-7.062,4.346v0.136c1.584,0.227,2.896,0.645,3.938,1.256c1.041,0.61,1.889,1.392,2.545,2.342
				s1.131,2.048,1.427,3.293c0.294,1.246,0.485,2.592,0.577,4.04c0.045,0.815,0.091,1.811,0.136,2.988
				c0.044,1.177,0.136,2.366,0.272,3.564c0.136,1.2,0.35,2.332,0.645,3.395c0.293,1.064,0.689,1.891,1.188,2.479h-5.092
				c-0.271-0.452-0.486-1.007-0.645-1.664c-0.16-0.656-0.272-1.334-0.34-2.037c-0.068-0.701-0.125-1.393-0.17-2.071
				c-0.046-0.679-0.092-1.267-0.136-1.766c-0.092-1.719-0.237-3.428-0.442-5.125c-0.203-1.697-0.633-3.213-1.289-4.549
				c-0.656-1.335-1.607-2.411-2.852-3.226c-1.246-0.815-2.953-1.176-5.127-1.086h-17.518v21.524h-4.617v-48.48H860.504z
				 M860.164,53.109c1.403,0,2.739-0.214,4.006-0.645c1.268-0.43,2.377-1.052,3.326-1.867c0.951-0.814,1.71-1.799,2.275-2.954
				c0.565-1.154,0.849-2.478,0.849-3.972c0-2.987-0.859-5.34-2.579-7.061c-1.721-1.72-4.346-2.581-7.877-2.581h-17.246v19.08
				H860.164z"/>
			<path fill="#FFFFFF" d="M497.113,90.446l19.012,48.479h-4.956l-5.908-15.073h-22.065l-5.841,15.073h-4.888l19.487-48.479H497.113
				z M503.7,119.915l-9.371-24.851l-9.709,24.851H503.7z"/>
			<path fill="#FFFFFF" d="M536.834,90.446c7.377,0.181,12.934,2.252,16.668,6.213c3.735,3.961,5.604,9.97,5.604,18.027
				c0,8.058-1.868,14.066-5.604,18.027c-3.734,3.961-9.291,6.032-16.668,6.212h-16.771V90.446H536.834z M534.525,134.988
				c3.486,0,6.484-0.374,8.996-1.121c2.513-0.747,4.584-1.935,6.213-3.564c1.631-1.63,2.829-3.734,3.599-6.314
				c0.77-2.581,1.154-5.681,1.154-9.302c0-3.621-0.385-6.722-1.154-9.303c-0.77-2.58-1.968-4.685-3.599-6.314
				c-1.629-1.63-3.7-2.817-6.213-3.564c-2.512-0.747-5.51-1.121-8.996-1.121h-9.845v40.604H534.525z"/>
			<path fill="#FFFFFF" d="M565.689,90.446l15.754,43.388h0.136l15.616-43.388h4.889l-17.993,48.479h-5.364l-17.924-48.479H565.689z
				"/>
			<path fill="#FFFFFF" d="M621.504,90.446l19.012,48.479h-4.957l-5.908-15.073h-22.064l-5.842,15.073h-4.887l19.486-48.479H621.504
				z M628.09,119.915l-9.371-24.851l-9.708,24.851H628.09z"/>
			<path fill="#FFFFFF" d="M649.545,90.446l28.246,41.011h0.136V90.446h4.618v48.479h-5.161l-28.246-41.01h-0.136v41.01h-4.617
				V90.446H649.545z"/>
			<path fill="#FFFFFF" d="M725.219,100.122c-0.93-1.47-2.061-2.704-3.396-3.7c-1.334-0.996-2.807-1.754-4.412-2.275
				c-1.607-0.52-3.293-0.781-5.059-0.781c-3.215,0-5.976,0.611-8.283,1.833c-2.309,1.223-4.199,2.841-5.671,4.855
				c-1.471,2.015-2.558,4.289-3.259,6.824c-0.701,2.536-1.053,5.138-1.053,7.809c0,2.626,0.352,5.217,1.053,7.774
				c0.701,2.558,1.788,4.844,3.259,6.858c1.472,2.015,3.362,3.632,5.671,4.855c2.308,1.222,5.068,1.833,8.283,1.833
				c2.264,0,4.301-0.407,6.111-1.222c1.809-0.814,3.371-1.923,4.684-3.327c1.313-1.403,2.377-3.044,3.191-4.923
				c0.815-1.878,1.335-3.904,1.562-6.077h4.617c-0.317,2.987-1.02,5.681-2.104,8.08c-1.087,2.399-2.49,4.437-4.21,6.11
				c-1.722,1.676-3.746,2.966-6.077,3.871c-2.332,0.905-4.923,1.357-7.774,1.357c-3.803,0-7.141-0.691-10.016-2.07
				c-2.875-1.381-5.262-3.226-7.162-5.534c-1.902-2.309-3.328-4.979-4.279-8.012c-0.949-3.032-1.425-6.224-1.425-9.574
				c0-3.35,0.476-6.541,1.425-9.574c0.951-3.032,2.377-5.714,4.279-8.046c1.9-2.331,4.287-4.187,7.162-5.567
				s6.213-2.071,10.016-2.071c2.309,0,4.559,0.34,6.756,1.019c2.195,0.679,4.187,1.687,5.975,3.021
				c1.787,1.336,3.282,2.977,4.482,4.923c1.198,1.947,1.957,4.188,2.273,6.722h-4.617
				C726.813,103.257,726.145,101.593,725.219,100.122z"/>
			<path fill="#FFFFFF" d="M772.576,90.446v3.938h-28.857v17.518h27.025v3.938h-27.025v19.147h29.197v3.938h-33.814V90.446H772.576z
				"/>
			<path fill="#FFFFFF" d="M795.661,90.446c7.378,0.181,12.935,2.252,16.669,6.213c3.733,3.961,5.603,9.97,5.603,18.027
				c0,8.058-1.869,14.066-5.603,18.027c-3.734,3.961-9.291,6.032-16.669,6.212h-16.771V90.446H795.661z M793.353,134.988
				c3.485,0,6.485-0.374,8.996-1.121c2.513-0.747,4.584-1.935,6.214-3.564c1.629-1.63,2.828-3.734,3.598-6.314
				c0.769-2.581,1.156-5.681,1.156-9.302c0-3.621-0.388-6.722-1.156-9.303c-0.77-2.58-1.969-4.685-3.598-6.314
				c-1.63-1.63-3.701-2.817-6.214-3.564c-2.511-0.747-5.511-1.121-8.996-1.121h-9.845v40.604H793.353z"/>
			<path fill="#FFFFFF" d="M481.09,189.571c0.814,1.675,1.935,3.011,3.361,4.005c1.426,0.997,3.11,1.709,5.058,2.14
				c1.945,0.43,4.028,0.645,6.247,0.645c1.267,0,2.648-0.18,4.142-0.543c1.494-0.362,2.886-0.939,4.176-1.731
				c1.29-0.792,2.365-1.81,3.226-3.055c0.859-1.245,1.29-2.75,1.29-4.516c0-1.358-0.306-2.535-0.916-3.53
				c-0.612-0.996-1.403-1.834-2.378-2.512c-0.973-0.679-2.048-1.233-3.225-1.664c-1.179-0.43-2.332-0.781-3.463-1.052l-10.797-2.648
				c-1.403-0.362-2.772-0.815-4.106-1.358c-1.336-0.543-2.503-1.267-3.497-2.173c-0.996-0.905-1.799-2.014-2.411-3.327
				c-0.61-1.312-0.917-2.92-0.917-4.821c0-1.177,0.227-2.557,0.68-4.142c0.451-1.583,1.302-3.078,2.547-4.482
				c1.244-1.402,2.952-2.59,5.125-3.563c2.173-0.973,4.959-1.46,8.353-1.46c2.399,0,4.685,0.317,6.857,0.951
				c2.173,0.634,4.074,1.584,5.704,2.851c1.629,1.268,2.93,2.841,3.903,4.719c0.973,1.879,1.461,4.064,1.461,6.553h-4.617
				c-0.092-1.856-0.51-3.473-1.256-4.854c-0.748-1.381-1.722-2.535-2.921-3.463c-1.199-0.927-2.579-1.629-4.142-2.105
				c-1.562-0.475-3.203-0.712-4.922-0.712c-1.586,0-3.112,0.169-4.585,0.51c-1.471,0.339-2.761,0.882-3.869,1.629
				s-2.002,1.731-2.683,2.953c-0.678,1.223-1.018,2.74-1.018,4.55c0,1.132,0.192,2.116,0.577,2.954
				c0.384,0.837,0.916,1.551,1.596,2.138c0.679,0.589,1.459,1.064,2.343,1.427c0.883,0.363,1.821,0.657,2.817,0.882l11.815,2.92
				c1.718,0.453,3.337,1.008,4.854,1.664c1.517,0.656,2.853,1.471,4.006,2.444c1.155,0.974,2.059,2.162,2.716,3.564
				c0.655,1.404,0.985,3.101,0.985,5.092c0,0.543-0.058,1.268-0.171,2.172c-0.112,0.906-0.385,1.868-0.814,2.886
				c-0.431,1.019-1.042,2.048-1.832,3.089c-0.793,1.042-1.879,1.98-3.259,2.817c-1.383,0.838-3.091,1.518-5.128,2.038
				s-4.48,0.781-7.332,0.781c-2.854,0-5.5-0.329-7.944-0.985s-4.526-1.664-6.246-3.021c-1.722-1.358-3.045-3.1-3.973-5.228
				c-0.93-2.127-1.324-4.685-1.188-7.672h4.617C479.889,185.814,480.274,187.897,481.09,189.571z"/>
			<path fill="#FFFFFF" d="M553.266,150.801v3.938h-16.907v44.541h-4.616v-44.541h-16.839v-3.938H553.266z"/>
			<path fill="#FFFFFF" d="M561.481,150.801v30.012c0,2.806,0.316,5.194,0.951,7.163c0.634,1.969,1.562,3.576,2.784,4.821
				c1.221,1.246,2.715,2.15,4.48,2.716c1.766,0.566,3.756,0.848,5.976,0.848c2.263,0,4.277-0.282,6.043-0.848
				c1.765-0.566,3.259-1.471,4.481-2.716c1.223-1.245,2.148-2.852,2.783-4.821c0.633-1.969,0.951-4.357,0.951-7.163v-30.012h4.617
				v31.03c0,2.49-0.352,4.855-1.053,7.095c-0.703,2.241-1.812,4.199-3.328,5.874c-1.516,1.675-3.462,2.999-5.839,3.972
				c-2.376,0.973-5.262,1.46-8.656,1.46c-3.351,0-6.214-0.487-8.59-1.46c-2.376-0.973-4.323-2.296-5.839-3.972
				c-1.518-1.674-2.625-3.632-3.328-5.874c-0.701-2.24-1.051-4.605-1.051-7.095v-31.03H561.481z"/>
			<path fill="#FFFFFF" d="M620.146,150.801c7.379,0.181,12.936,2.252,16.67,6.213c3.734,3.961,5.602,9.971,5.602,18.027
				c0,8.057-1.867,14.066-5.602,18.027c-3.734,3.961-9.291,6.032-16.67,6.212h-16.771v-48.479H620.146z M617.838,195.343
				c3.485,0,6.484-0.373,8.996-1.12s4.584-1.936,6.214-3.565c1.629-1.629,2.829-3.735,3.599-6.315
				c0.768-2.58,1.154-5.68,1.154-9.302c0-3.621-0.387-6.722-1.154-9.302c-0.77-2.581-1.97-4.686-3.599-6.315
				c-1.63-1.63-3.702-2.818-6.214-3.564s-5.511-1.12-8.996-1.12h-9.845v40.604H617.838z"/>
			<path fill="#FFFFFF" d="M654.368,150.801v48.479h-4.618v-48.479H654.368z"/>
			<path fill="#FFFFFF" d="M697.482,150.801v3.938h-28.857v17.518h27.023v3.938h-27.023v19.148h29.196v3.938h-33.813v-48.479
				H697.482z"/>
			<path fill="#FFFFFF" d="M707.122,189.571c0.815,1.675,1.936,3.011,3.362,4.005c1.425,0.997,3.109,1.709,5.057,2.14
				c1.947,0.43,4.03,0.645,6.247,0.645c1.268,0,2.648-0.18,4.143-0.543c1.493-0.362,2.885-0.939,4.176-1.731
				c1.29-0.792,2.364-1.81,3.225-3.055c0.859-1.245,1.29-2.75,1.29-4.516c0-1.358-0.306-2.535-0.916-3.53
				c-0.611-0.996-1.404-1.834-2.377-2.512c-0.974-0.679-2.049-1.233-3.225-1.664c-1.178-0.43-2.332-0.781-3.464-1.052l-10.796-2.648
				c-1.402-0.362-2.772-0.815-4.107-1.358c-1.336-0.543-2.501-1.267-3.496-2.173c-0.996-0.905-1.801-2.014-2.411-3.327
				c-0.61-1.312-0.917-2.92-0.917-4.821c0-1.177,0.227-2.557,0.68-4.142c0.452-1.583,1.301-3.078,2.547-4.482
				c1.243-1.402,2.953-2.59,5.125-3.563c2.174-0.973,4.957-1.46,8.352-1.46c2.399,0,4.686,0.317,6.859,0.951
				c2.172,0.634,4.072,1.584,5.702,2.851c1.63,1.268,2.931,2.841,3.904,4.719c0.972,1.879,1.46,4.064,1.46,6.553h-4.617
				c-0.09-1.856-0.51-3.473-1.256-4.854c-0.747-1.381-1.722-2.535-2.92-3.463c-1.2-0.927-2.58-1.629-4.142-2.105
				c-1.562-0.475-3.203-0.712-4.923-0.712c-1.584,0-3.112,0.169-4.583,0.51c-1.472,0.339-2.763,0.882-3.87,1.629
				c-1.109,0.747-2.003,1.731-2.683,2.953c-0.679,1.223-1.019,2.74-1.019,4.55c0,1.132,0.192,2.116,0.577,2.954
				s0.917,1.551,1.597,2.138c0.678,0.589,1.46,1.064,2.341,1.427c0.884,0.363,1.822,0.657,2.818,0.882l11.814,2.92
				c1.721,0.453,3.339,1.008,4.855,1.664c1.516,0.656,2.852,1.471,4.006,2.444c1.155,0.974,2.06,2.162,2.716,3.564
				c0.654,1.404,0.984,3.101,0.984,5.092c0,0.543-0.058,1.268-0.169,2.172c-0.114,0.906-0.385,1.868-0.815,2.886
				c-0.432,1.019-1.041,2.048-1.833,3.089c-0.793,1.042-1.879,1.98-3.259,2.817c-1.381,0.838-3.091,1.518-5.127,2.038
				c-2.037,0.52-4.481,0.781-7.333,0.781s-5.5-0.329-7.944-0.985s-4.527-1.664-6.246-3.021c-1.721-1.358-3.045-3.1-3.973-5.228
				c-0.929-2.127-1.324-4.685-1.189-7.672h4.618C705.923,185.814,706.308,187.897,707.122,189.571z"/>
		</g>
	</g>
</g>
<g id="Layer_2">
</g>
</svg>
