<?xml version="1.0" encoding="utf-8"?>
<!-- Generator: Adobe Illustrator 16.0.0, SVG Export Plug-In . SVG Version: 6.00 Build 0)  -->
<!DOCTYPE svg PUBLIC "-//W3C//DTD SVG 1.1//EN" "http://www.w3.org/Graphics/SVG/1.1/DTD/svg11.dtd">
<svg version="1.1" xmlns="http://www.w3.org/2000/svg" xmlns:xlink="http://www.w3.org/1999/xlink" x="0px" y="0px"
	 width="957.353px" height="233.265px" viewBox="0 0 957.353 233.265" enable-background="new 0 0 957.353 233.265"
	 xml:space="preserve">
<g id="Layer_1">
	<g>
		<g>
			<g>
				<g>
					<path d="M129.6,183.561c-2.293,5.344-5.485,10.066-9.582,14.172c-4.1,4.109-8.854,7.312-14.26,9.612
						c-5.411,2.3-11.149,3.45-17.209,3.45h-7.863c-6.066,0-11.803-1.15-17.209-3.45c-5.411-2.3-10.123-5.503-14.137-9.612
						c-4.016-4.105-7.168-8.828-9.465-14.172c-2.295-5.336-3.439-11.127-3.439-17.371v-99.32c0-6.076,1.145-11.828,3.439-17.251
						c2.297-5.423,5.449-10.144,9.465-14.169c4.014-4.025,8.726-7.188,14.137-9.49c5.406-2.299,11.143-3.451,17.209-3.451h7.863
						c6.06,0,11.798,1.152,17.209,3.451c5.406,2.303,10.16,5.465,14.26,9.49c4.097,4.025,7.289,8.746,9.582,14.169
						c2.297,5.423,3.443,11.175,3.443,17.251v5.176c0,2.302-0.772,4.189-2.322,5.668c-1.547,1.479-3.377,2.219-5.49,2.219h-10.497
						c-2.118,0-3.947-0.74-5.494-2.219c-1.55-1.479-2.319-3.366-2.319-5.668v-5.176c0-5.091-1.768-9.402-5.299-12.939
						c-3.535-3.531-7.846-5.297-12.938-5.297h-7.889c-5.092,0-9.404,1.766-12.937,5.297c-3.534,3.537-5.299,7.849-5.299,12.939
						v99.32c0,5.094,1.765,9.448,5.299,13.06c3.532,3.616,7.845,5.422,12.937,5.422h7.889c5.092,0,9.402-1.806,12.938-5.422
						c3.531-3.611,5.299-7.966,5.299-13.06v-7.889c0-2.133,0.77-3.943,2.319-5.422c1.547-1.479,3.376-2.218,5.494-2.218h10.497
						c2.113,0,3.943,0.739,5.49,2.218c1.55,1.479,2.322,3.289,2.322,5.422v7.889C133.043,172.434,131.896,178.225,129.6,183.561z"/>
					<path d="M271.299,200.199c0,2.301-0.738,4.188-2.219,5.666c-1.479,1.479-3.367,2.221-5.669,2.221h-10.35
						c-2.138,0-3.986-0.741-5.546-2.221c-1.562-1.479-2.341-3.365-2.341-5.666v-49.538h-52.249v49.538
						c0,2.301-0.778,4.188-2.338,5.666c-1.563,1.479-3.414,2.221-5.547,2.221h-10.352c-2.301,0-4.189-0.741-5.668-2.221
						c-1.479-1.479-2.216-3.365-2.216-5.666v-63.586l0.244-1.477l27.356-104.249c0.328-1.641,1.232-2.995,2.711-4.066
						c1.479-1.066,3.12-1.601,4.929-1.601h34.01c1.806,0,3.452,0.534,4.93,1.601c1.479,1.071,2.38,2.426,2.712,4.066l27.356,104.249
						l0.245,1.477V200.199z M222.008,51.344h-5.915l-19.221,73.194h44.362L222.008,51.344z"/>
					<path d="M400.696,183.561c-2.288,5.344-5.478,10.066-9.564,14.172c-4.088,4.109-8.827,7.312-14.225,9.612
						c-5.395,2.3-11.115,3.45-17.163,3.45h-10.301c-6.212,0-11.975-1.15-17.29-3.45c-5.312-2.3-10.014-5.503-14.1-9.612
						c-4.09-4.105-7.279-8.828-9.565-14.172c-2.288-5.336-3.433-11.127-3.433-17.371v-5.177c0-2.135,0.771-3.982,2.32-5.546
						c1.547-1.561,3.377-2.341,5.493-2.341h10.499c2.114,0,3.943,0.78,5.49,2.341c1.549,1.563,2.323,3.411,2.323,5.546v5.177
						c0,5.094,1.763,9.448,5.299,13.06c3.531,3.616,7.845,5.422,12.938,5.422h10.352c5.091,0,9.402-1.806,12.938-5.422
						c3.531-3.611,5.299-7.966,5.299-13.06v-7.889c0-5.916-1.725-10.844-5.177-14.785c-3.448-3.943-7.803-7.518-13.06-10.723
						c-5.261-3.203-10.929-6.322-17.005-9.363c-6.082-3.039-11.749-6.693-17.006-10.967c-5.259-4.271-9.611-9.366-13.062-15.28
						c-3.45-5.915-5.176-13.389-5.176-22.427v-7.887c0-6.076,1.145-11.828,3.441-17.251c2.294-5.423,5.448-10.144,9.463-14.169
						c4.013-4.025,8.727-7.188,14.133-9.49c5.407-2.299,11.146-3.451,17.21-3.451h5.406c6.06,0,11.799,1.152,17.205,3.451
						c5.408,2.303,10.119,5.465,14.136,9.49c4.014,4.025,7.165,8.746,9.462,14.169c2.294,5.423,3.44,11.175,3.44,17.251v5.176
						c0,2.302-0.781,4.189-2.341,5.668c-1.562,1.479-3.411,2.219-5.544,2.219h-10.35c-2.305,0-4.192-0.74-5.669-2.219
						c-1.479-1.479-2.218-3.366-2.218-5.668v-5.176c0-5.091-1.757-9.402-5.27-12.939c-3.511-3.531-7.8-5.297-12.86-5.297h-5.391
						c-5.063,0-9.35,1.766-12.862,5.297c-3.512,3.537-5.268,7.849-5.268,12.939v7.887c0,5.42,1.759,10.023,5.281,13.801
						c3.518,3.781,7.854,7.189,13.013,10.227c5.157,3.043,10.807,6.125,16.946,9.242c6.14,3.124,11.789,6.863,16.949,11.213
						c5.155,4.357,9.497,9.656,13.015,15.898c3.519,6.244,5.281,13.967,5.281,23.164v7.889
						C404.131,172.434,402.982,178.225,400.696,183.561z"/>
				</g>
			</g>
			<rect x="433.803" y="29" width="5" height="179"/>
		</g>
		<g>
			<path d="M505.202,41.768c-0.928-1.47-2.061-2.703-3.395-3.699c-1.336-0.996-2.807-1.754-4.412-2.275
				c-1.609-0.52-3.294-0.781-5.061-0.781c-3.214,0-5.974,0.611-8.283,1.834c-2.309,1.223-4.198,2.84-5.669,4.854
				c-1.472,2.016-2.559,4.29-3.26,6.824c-0.702,2.536-1.052,5.139-1.052,7.809c0,2.627,0.35,5.218,1.052,7.775
				c0.701,2.557,1.788,4.844,3.26,6.857c1.471,2.014,3.36,3.633,5.669,4.854c2.31,1.222,5.069,1.833,8.283,1.833
				c2.264,0,4.301-0.407,6.112-1.222c1.81-0.815,3.371-1.924,4.685-3.327c1.312-1.402,2.377-3.044,3.191-4.923
				c0.815-1.878,1.335-3.903,1.562-6.077h4.616c-0.316,2.987-1.019,5.682-2.104,8.08c-1.088,2.4-2.49,4.438-4.21,6.11
				c-1.721,1.675-3.745,2.966-6.077,3.871c-2.331,0.905-4.922,1.356-7.775,1.356c-3.801,0-7.14-0.689-10.015-2.07
				c-2.875-1.38-5.263-3.225-7.163-5.533s-3.326-4.979-4.278-8.012c-0.95-3.032-1.425-6.224-1.425-9.574
				c0-3.35,0.475-6.541,1.425-9.574c0.952-3.031,2.378-5.713,4.278-8.045s4.288-4.187,7.163-5.568
				c2.875-1.381,6.214-2.07,10.015-2.07c2.311,0,4.561,0.34,6.757,1.018c2.194,0.68,4.187,1.688,5.976,3.022
				c1.788,1.335,3.28,2.977,4.48,4.923c1.199,1.947,1.957,4.188,2.275,6.721h-4.617C506.798,44.902,506.13,43.24,505.202,41.768z"/>
			<path d="M552.561,32.092v3.938h-28.855v17.519h27.023v3.938h-27.023v19.148h29.196v3.938h-33.814v-48.48H552.561z"/>
			<path d="M563.969,32.092l28.246,41.012h0.134V32.092h4.619v48.48h-5.162l-28.244-41.011h-0.136v41.011h-4.617v-48.48H563.969z"/>
			<path d="M639.402,32.092v3.938h-16.906v44.542h-4.616V36.03h-16.84v-3.938H639.402z"/>
			<path d="M676.951,32.092v3.938h-28.855v17.519h27.023v3.938h-27.023v19.148h29.195v3.938h-33.814v-48.48H676.951z"/>
			<path d="M705.468,32.092c1.993,0,3.882,0.25,5.671,0.747c1.787,0.499,3.35,1.257,4.684,2.275
				c1.336,1.019,2.399,2.331,3.192,3.938c0.791,1.606,1.188,3.496,1.188,5.668c0,3.08-0.792,5.75-2.376,8.013
				c-1.585,2.265-3.938,3.713-7.062,4.346v0.136c1.583,0.227,2.897,0.645,3.938,1.256c1.042,0.611,1.89,1.393,2.547,2.343
				c0.655,0.95,1.13,2.048,1.427,3.294c0.294,1.245,0.484,2.592,0.576,4.039c0.045,0.815,0.09,1.811,0.137,2.988
				c0.044,1.177,0.135,2.365,0.271,3.564s0.351,2.332,0.646,3.395c0.293,1.064,0.689,1.891,1.188,2.479H716.4
				c-0.271-0.452-0.487-1.007-0.646-1.664c-0.159-0.656-0.272-1.334-0.339-2.036c-0.068-0.701-0.125-1.393-0.171-2.071
				c-0.044-0.679-0.091-1.268-0.135-1.766c-0.091-1.719-0.237-3.429-0.441-5.126s-0.635-3.214-1.29-4.55
				c-0.656-1.334-1.607-2.41-2.852-3.225c-1.246-0.815-2.954-1.176-5.126-1.087h-17.519v21.524h-4.617v-48.48H705.468z
				 M705.13,55.109c1.401,0,2.737-0.213,4.005-0.645c1.268-0.43,2.376-1.052,3.327-1.867c0.951-0.814,1.708-1.799,2.274-2.953
				s0.85-2.479,0.85-3.973c0-2.986-0.86-5.34-2.581-7.061s-4.345-2.581-7.875-2.581h-17.247v19.079H705.13z"/>
			<path d="M777.235,32.092v3.938h-26.14v17.519h23.221v3.938h-23.221v23.086h-4.618v-48.48H777.235z"/>
			<path d="M781.31,46.758c0.95-3.031,2.376-5.713,4.276-8.045c1.901-2.332,4.289-4.187,7.164-5.568
				c2.873-1.381,6.213-2.07,10.015-2.07c3.803,0,7.13,0.689,9.981,2.07c2.852,1.382,5.229,3.236,7.131,5.568
				c1.9,2.332,3.325,5.014,4.275,8.045c0.951,3.033,1.427,6.225,1.427,9.574c0,3.351-0.476,6.542-1.427,9.574
				c-0.95,3.033-2.375,5.703-4.275,8.012c-1.902,2.309-4.279,4.153-7.131,5.533c-2.852,1.381-6.179,2.07-9.981,2.07
				c-3.802,0-7.142-0.689-10.015-2.07c-2.875-1.38-5.263-3.225-7.164-5.533c-1.9-2.309-3.326-4.979-4.276-8.012
				c-0.95-3.032-1.426-6.224-1.426-9.574C779.884,52.982,780.359,49.791,781.31,46.758z M785.553,64.107
				c0.701,2.557,1.787,4.844,3.26,6.857c1.471,2.014,3.361,3.633,5.669,4.854c2.309,1.222,5.069,1.833,8.283,1.833
				s5.964-0.611,8.25-1.833s4.164-2.841,5.635-4.854s2.558-4.301,3.259-6.857c0.702-2.558,1.054-5.148,1.054-7.775
				c0-2.67-0.352-5.272-1.054-7.809c-0.701-2.534-1.788-4.809-3.259-6.824c-1.471-2.014-3.349-3.631-5.635-4.854
				s-5.036-1.834-8.25-1.834s-5.975,0.611-8.283,1.834c-2.308,1.223-4.198,2.84-5.669,4.854c-1.473,2.016-2.559,4.29-3.26,6.824
				c-0.703,2.536-1.053,5.139-1.053,7.809C784.5,58.959,784.85,61.55,785.553,64.107z"/>
			<path d="M854.504,32.092c1.992,0,3.88,0.25,5.67,0.747c1.787,0.499,3.35,1.257,4.684,2.275c1.335,1.019,2.4,2.331,3.191,3.938
				c0.792,1.606,1.189,3.496,1.189,5.668c0,3.08-0.793,5.75-2.377,8.013c-1.586,2.265-3.938,3.713-7.062,4.346v0.136
				c1.584,0.227,2.896,0.645,3.938,1.256c1.041,0.611,1.889,1.393,2.545,2.343s1.131,2.048,1.427,3.294
				c0.294,1.245,0.485,2.592,0.577,4.039c0.045,0.815,0.091,1.811,0.136,2.988c0.044,1.177,0.136,2.365,0.272,3.564
				c0.136,1.199,0.35,2.332,0.645,3.395c0.293,1.064,0.689,1.891,1.188,2.479h-5.092c-0.271-0.452-0.486-1.007-0.645-1.664
				c-0.16-0.656-0.272-1.334-0.34-2.036c-0.068-0.701-0.125-1.393-0.17-2.071c-0.046-0.679-0.092-1.268-0.136-1.766
				c-0.092-1.719-0.237-3.429-0.442-5.126c-0.203-1.697-0.633-3.214-1.289-4.55c-0.656-1.334-1.607-2.41-2.852-3.225
				c-1.246-0.815-2.953-1.176-5.127-1.087h-17.518v21.524h-4.617v-48.48H854.504z M854.164,55.109c1.403,0,2.739-0.213,4.006-0.645
				c1.268-0.43,2.377-1.052,3.326-1.867c0.951-0.814,1.71-1.799,2.275-2.953s0.849-2.479,0.849-3.973
				c0-2.986-0.859-5.34-2.579-7.061c-1.721-1.721-4.346-2.581-7.877-2.581h-17.246v19.079H854.164z"/>
			<path d="M491.113,92.447l19.012,48.479h-4.956l-5.908-15.072h-22.065l-5.841,15.072h-4.888l19.487-48.479H491.113z
				 M497.7,121.915l-9.371-24.851l-9.709,24.851H497.7z"/>
			<path d="M530.834,92.447c7.377,0.181,12.934,2.252,16.668,6.213c3.735,3.961,5.604,9.971,5.604,18.027
				s-1.868,14.066-5.604,18.027c-3.734,3.961-9.291,6.031-16.668,6.211h-16.771V92.447H530.834z M528.525,136.988
				c3.486,0,6.484-0.373,8.996-1.12c2.513-0.747,4.584-1.935,6.213-3.564c1.631-1.63,2.829-3.734,3.599-6.314
				c0.77-2.581,1.154-5.681,1.154-9.302s-0.385-6.723-1.154-9.303s-1.968-4.686-3.599-6.314c-1.629-1.631-3.7-2.818-6.213-3.564
				c-2.512-0.747-5.51-1.121-8.996-1.121h-9.845v40.604H528.525z"/>
			<path d="M559.689,92.447l15.754,43.387h0.136l15.616-43.387h4.889l-17.993,48.479h-5.364l-17.924-48.479H559.689z"/>
			<path d="M615.504,92.447l19.012,48.479h-4.957l-5.908-15.072h-22.064l-5.842,15.072h-4.887l19.486-48.479H615.504z
				 M622.09,121.915l-9.371-24.851l-9.708,24.851H622.09z"/>
			<path d="M643.545,92.447l28.246,41.011h0.136V92.447h4.618v48.479h-5.161l-28.246-41.01h-0.136v41.01h-4.617V92.447H643.545z"/>
			<path d="M719.219,102.122c-0.93-1.47-2.061-2.704-3.396-3.7c-1.334-0.996-2.807-1.754-4.412-2.275
				c-1.607-0.52-3.293-0.78-5.059-0.78c-3.215,0-5.976,0.611-8.283,1.833c-2.309,1.223-4.199,2.842-5.671,4.855
				c-1.471,2.015-2.558,4.289-3.259,6.824s-1.053,5.137-1.053,7.809c0,2.625,0.352,5.217,1.053,7.773
				c0.701,2.559,1.788,4.844,3.259,6.857c1.472,2.016,3.362,3.633,5.671,4.855c2.308,1.222,5.068,1.832,8.283,1.832
				c2.264,0,4.301-0.406,6.111-1.221c1.809-0.814,3.371-1.924,4.684-3.327c1.313-1.403,2.377-3.044,3.191-4.923
				c0.815-1.879,1.335-3.904,1.562-6.076h4.617c-0.317,2.986-1.02,5.68-2.104,8.079c-1.087,2.399-2.49,4.437-4.21,6.11
				c-1.722,1.676-3.746,2.966-6.077,3.871c-2.332,0.904-4.923,1.357-7.774,1.357c-3.803,0-7.141-0.691-10.016-2.07
				c-2.875-1.381-5.262-3.226-7.162-5.534c-1.902-2.309-3.328-4.979-4.279-8.012c-0.949-3.032-1.425-6.224-1.425-9.573
				s0.476-6.541,1.425-9.574c0.951-3.032,2.377-5.715,4.279-8.047c1.9-2.33,4.287-4.186,7.162-5.566s6.213-2.072,10.016-2.072
				c2.309,0,4.559,0.34,6.756,1.02c2.195,0.678,4.187,1.686,5.975,3.021c1.787,1.336,3.282,2.977,4.482,4.922
				c1.198,1.947,1.957,4.188,2.273,6.723h-4.617C720.813,105.258,720.145,103.594,719.219,102.122z"/>
			<path d="M766.576,92.447v3.938h-28.857v17.518h27.025v3.939h-27.025v19.146h29.197v3.938h-33.814V92.447H766.576z"/>
			<path d="M789.661,92.447c7.378,0.181,12.935,2.252,16.669,6.213c3.733,3.961,5.603,9.971,5.603,18.027
				s-1.869,14.066-5.603,18.027c-3.734,3.961-9.291,6.031-16.669,6.211h-16.771V92.447H789.661z M787.353,136.988
				c3.485,0,6.485-0.373,8.996-1.12c2.513-0.747,4.584-1.935,6.214-3.564c1.629-1.63,2.828-3.734,3.598-6.314
				c0.769-2.581,1.156-5.681,1.156-9.302s-0.388-6.723-1.156-9.303c-0.77-2.58-1.969-4.686-3.598-6.314
				c-1.63-1.631-3.701-2.818-6.214-3.564c-2.511-0.747-5.511-1.121-8.996-1.121h-9.845v40.604H787.353z"/>
			<path d="M475.09,191.572c0.814,1.675,1.935,3.01,3.361,4.005c1.426,0.997,3.11,1.709,5.058,2.14
				c1.945,0.43,4.028,0.645,6.247,0.645c1.267,0,2.648-0.18,4.142-0.543c1.494-0.361,2.886-0.939,4.176-1.731
				s2.365-1.81,3.226-3.056c0.859-1.244,1.29-2.75,1.29-4.516c0-1.357-0.306-2.534-0.916-3.529
				c-0.612-0.996-1.403-1.834-2.378-2.513c-0.973-0.679-2.048-1.233-3.225-1.664c-1.179-0.431-2.332-0.781-3.463-1.052
				l-10.797-2.648c-1.403-0.362-2.772-0.814-4.106-1.357c-1.336-0.544-2.503-1.268-3.497-2.174
				c-0.996-0.904-1.799-2.014-2.411-3.326c-0.61-1.312-0.917-2.92-0.917-4.821c0-1.177,0.227-2.557,0.68-4.142
				c0.451-1.584,1.302-3.078,2.547-4.482c1.244-1.402,2.952-2.59,5.125-3.563s4.959-1.46,8.353-1.46
				c2.399,0,4.685,0.316,6.857,0.951c2.173,0.633,4.074,1.584,5.704,2.851c1.629,1.268,2.93,2.841,3.903,4.719
				c0.973,1.88,1.461,4.064,1.461,6.553h-4.617c-0.092-1.856-0.51-3.474-1.256-4.854c-0.748-1.381-1.722-2.535-2.921-3.463
				s-2.579-1.629-4.142-2.105c-1.562-0.475-3.203-0.713-4.922-0.713c-1.586,0-3.112,0.17-4.585,0.51
				c-1.471,0.34-2.761,0.883-3.869,1.629c-1.108,0.747-2.002,1.732-2.683,2.953c-0.678,1.223-1.018,2.74-1.018,4.551
				c0,1.131,0.192,2.115,0.577,2.953c0.384,0.838,0.916,1.551,1.596,2.139c0.679,0.589,1.459,1.064,2.343,1.426
				c0.883,0.363,1.821,0.657,2.817,0.883l11.815,2.92c1.718,0.453,3.337,1.008,4.854,1.664s2.853,1.471,4.006,2.443
				c1.155,0.975,2.059,2.162,2.716,3.564c0.655,1.404,0.985,3.102,0.985,5.093c0,0.543-0.058,1.269-0.171,2.173
				c-0.112,0.906-0.385,1.867-0.814,2.886c-0.431,1.019-1.042,2.048-1.832,3.089c-0.793,1.042-1.879,1.98-3.259,2.818
				c-1.383,0.838-3.091,1.518-5.128,2.037s-4.48,0.781-7.332,0.781c-2.854,0-5.5-0.33-7.944-0.985s-4.526-1.663-6.246-3.021
				c-1.722-1.358-3.045-3.101-3.973-5.228c-0.93-2.128-1.324-4.686-1.188-7.673h4.617
				C473.889,187.814,474.274,189.897,475.09,191.572z"/>
			<path d="M547.266,152.801v3.939h-16.907v44.541h-4.616V156.74h-16.839v-3.939H547.266z"/>
			<path d="M555.481,152.801v30.012c0,2.807,0.316,5.194,0.951,7.164c0.634,1.969,1.562,3.576,2.784,4.82
				c1.221,1.246,2.715,2.15,4.48,2.717s3.756,0.848,5.976,0.848c2.263,0,4.277-0.281,6.043-0.848
				c1.765-0.566,3.259-1.471,4.481-2.717c1.223-1.244,2.148-2.852,2.783-4.82c0.633-1.97,0.951-4.357,0.951-7.164v-30.012h4.617
				v31.03c0,2.489-0.352,4.854-1.053,7.095c-0.703,2.242-1.812,4.199-3.328,5.874c-1.516,1.675-3.462,2.999-5.839,3.972
				c-2.376,0.973-5.262,1.461-8.656,1.461c-3.351,0-6.214-0.488-8.59-1.461s-4.323-2.297-5.839-3.972
				c-1.518-1.675-2.625-3.632-3.328-5.874c-0.701-2.24-1.051-4.605-1.051-7.095v-31.03H555.481z"/>
			<path d="M614.146,152.801c7.379,0.182,12.936,2.253,16.67,6.213c3.734,3.962,5.602,9.971,5.602,18.027
				c0,8.058-1.867,14.066-5.602,18.027s-9.291,6.032-16.67,6.213h-16.771v-48.48H614.146z M611.838,197.344
				c3.485,0,6.484-0.373,8.996-1.121c2.512-0.746,4.584-1.936,6.214-3.564c1.629-1.629,2.829-3.734,3.599-6.314
				c0.768-2.58,1.154-5.681,1.154-9.303c0-3.621-0.387-6.722-1.154-9.302c-0.77-2.581-1.97-4.686-3.599-6.315
				c-1.63-1.629-3.702-2.817-6.214-3.564c-2.512-0.746-5.511-1.119-8.996-1.119h-9.845v40.604H611.838z"/>
			<path d="M648.368,152.801v48.48h-4.618v-48.48H648.368z"/>
			<path d="M691.482,152.801v3.939h-28.857v17.518h27.023v3.938h-27.023v19.148h29.196v3.938h-33.813v-48.48H691.482z"/>
			<path d="M701.122,191.572c0.815,1.675,1.936,3.01,3.362,4.005c1.425,0.997,3.109,1.709,5.057,2.14
				c1.947,0.43,4.03,0.645,6.247,0.645c1.268,0,2.648-0.18,4.143-0.543c1.493-0.361,2.885-0.939,4.176-1.731
				c1.29-0.792,2.364-1.81,3.225-3.056c0.859-1.244,1.29-2.75,1.29-4.516c0-1.357-0.306-2.534-0.916-3.529
				c-0.611-0.996-1.404-1.834-2.377-2.513c-0.974-0.679-2.049-1.233-3.225-1.664c-1.178-0.431-2.332-0.781-3.464-1.052
				l-10.796-2.648c-1.402-0.362-2.772-0.814-4.107-1.357c-1.336-0.544-2.501-1.268-3.496-2.174
				c-0.996-0.904-1.801-2.014-2.411-3.326s-0.917-2.92-0.917-4.821c0-1.177,0.227-2.557,0.68-4.142
				c0.452-1.584,1.301-3.078,2.547-4.482c1.243-1.402,2.953-2.59,5.125-3.563c2.174-0.974,4.957-1.46,8.352-1.46
				c2.399,0,4.686,0.316,6.859,0.951c2.172,0.633,4.072,1.584,5.702,2.851c1.63,1.268,2.931,2.841,3.904,4.719
				c0.972,1.88,1.46,4.064,1.46,6.553h-4.617c-0.09-1.856-0.51-3.474-1.256-4.854c-0.747-1.381-1.722-2.535-2.92-3.463
				c-1.2-0.928-2.58-1.629-4.142-2.105c-1.562-0.475-3.203-0.713-4.923-0.713c-1.584,0-3.112,0.17-4.583,0.51
				c-1.472,0.34-2.763,0.883-3.87,1.629c-1.109,0.747-2.003,1.732-2.683,2.953c-0.679,1.223-1.019,2.74-1.019,4.551
				c0,1.131,0.192,2.115,0.577,2.953s0.917,1.551,1.597,2.139c0.678,0.589,1.46,1.064,2.341,1.426
				c0.884,0.363,1.822,0.657,2.818,0.883l11.814,2.92c1.721,0.453,3.339,1.008,4.855,1.664c1.516,0.656,2.852,1.471,4.006,2.443
				c1.155,0.975,2.06,2.162,2.716,3.564c0.654,1.404,0.984,3.102,0.984,5.093c0,0.543-0.058,1.269-0.169,2.173
				c-0.114,0.906-0.385,1.867-0.815,2.886c-0.432,1.019-1.041,2.048-1.833,3.089c-0.793,1.042-1.879,1.98-3.259,2.818
				c-1.381,0.838-3.091,1.518-5.127,2.037c-2.037,0.52-4.481,0.781-7.333,0.781s-5.5-0.33-7.944-0.985s-4.527-1.663-6.246-3.021
				c-1.721-1.358-3.045-3.101-3.973-5.228c-0.929-2.128-1.324-4.686-1.189-7.673h4.618
				C699.923,187.814,700.308,189.897,701.122,191.572z"/>
		</g>
	</g>
</g>
<g id="Layer_2">
</g>
</svg>
