<?xml version="1.0" encoding="utf-8"?>
<!-- Generator: Adobe Illustrator 18.0.0, SVG Export Plug-In . SVG Version: 6.00 Build 0)  -->
<!DOCTYPE svg PUBLIC "-//W3C//DTD SVG 1.1//EN" "http://www.w3.org/Graphics/SVG/1.1/DTD/svg11.dtd">
<svg version="1.1" id="Layer_1" xmlns="http://www.w3.org/2000/svg" xmlns:xlink="http://www.w3.org/1999/xlink" x="0px" y="0px"
	 viewBox="0 0 200 700" style="enable-background:new 0 0 200 700;" xml:space="preserve">
<style type="text/css">
	.st0{fill:none;stroke:#FFFFFF;stroke-width:3;stroke-miterlimit:10;}
	.st1{fill:#FFFFFF;}
	.st2{fill:#323232;}
</style>
<g>
	<defs>
		<polygon id="SVGID_1_" points="818.2,704.6 -586.2,704.6 -586.2,624.2 -526,588.8 -586.2,553.4 -586.2,-199.6 818.2,-199.6 		"/>
	</defs>
	<clipPath id="SVGID_2_">
		<use xlink:href="#SVGID_1_"  style="overflow:visible;"/>
	</clipPath>
</g>
<g>
	<rect x="33.6" y="356.2" class="st0" width="134" height="134"/>
	<path class="st1" d="M92.7,377.3h-5.2L84,390.8l-3.7-13.5h-5.4c1.1,3.2,2.2,6.4,3.3,9.6c1.7,4.8,2.7,8.4,3.1,10.9v13.9h5.2v-13.9
		L92.7,377.3z M106.5,403.4v-9c0-2.7-0.5-4.7-1.4-6c-1.3-1.8-3.1-2.6-5.4-2.6c-2.3,0-4.1,0.9-5.4,2.6c-1,1.3-1.5,3.3-1.5,6v9
		c0,2.7,0.5,4.7,1.5,6c1.3,1.7,3.1,2.6,5.4,2.6c2.3,0,4.1-0.9,5.4-2.6C106,408.2,106.5,406.2,106.5,403.4z M101.8,404.3
		c0,2.4-0.7,3.6-2.2,3.6c-1.5,0-2.2-1.2-2.2-3.6v-10.8c0-2.4,0.7-3.6,2.2-3.6c1.5,0,2.2,1.2,2.2,3.6V404.3z M123.6,411.7v-25.6H119
		v19.6c-1,1.5-2,2.2-2.9,2.2c-0.6,0-1-0.4-1.1-1.1c-0.1-0.2-0.1-0.7-0.1-1.8v-18.9h-4.6v20.3c0,1.8,0.2,3,0.4,3.8
		c0.5,1.3,1.5,1.9,3,1.9c1.7,0,3.5-1,5.3-3.2v2.8H123.6z"/>
	<path class="st1" d="M138.7,442.8c0,5.9,0,12.2-1.3,18c-0.9,4-4.2,7-8.2,7.5c-9.4,1.1-19,1.1-28.5,1.1c-9.5,0-19,0-28.5-1.1
		c-4-0.4-7.3-3.4-8.2-7.5c-1.3-5.8-1.3-12.1-1.3-18c0-5.9,0-12.2,1.3-18c0.9-4,4.2-7,8.2-7.5c9.4-1.1,19-1.1,28.5-1.1
		c9.5,0,19,0,28.5,1.1c4,0.4,7.3,3.4,8.2,7.5C138.7,430.6,138.7,436.9,138.7,442.8z"/>
	<path class="st2" d="M84.3,430v-4.8h-16v4.8h5.4v29.3h5.1V430H84.3z M93.6,459.3v-2.8c-1.8,2.1-3.6,3.1-5.3,3.1
		c-1.5,0-2.5-0.6-3-1.9c-0.3-0.8-0.4-2-0.4-3.8v-20.1h4.6v18.7c0,1.1,0,1.6,0,1.8c0.1,0.7,0.5,1.1,1.1,1.1c0.9,0,1.9-0.7,2.9-2.1
		v-19.4h4.6v25.4H93.6z M111.1,452c0,2.3-0.7,3.4-2,3.4c-0.8,0-1.5-0.4-2.3-1.1v-15.5c0.8-0.8,1.5-1.1,2.3-1.1c1.3,0,2,1.2,2,3.5
		V452z M115.7,451.7v-10.1c0-2.4-0.2-4.1-0.5-5.1c-0.6-1.9-1.8-2.9-3.7-2.9c-1.7,0-3.3,0.9-4.7,2.8v-11.1h-4.6v34h4.6v-2.5
		c1.5,1.9,3.1,2.8,4.7,2.8c1.8,0,3.1-1,3.7-2.9C115.5,455.7,115.7,454,115.7,451.7z M128.4,443.6h-4.6v-2.3c0-2.3,0.8-3.5,2.3-3.5
		c1.5,0,2.3,1.2,2.3,3.5V443.6z M133,451.2v-0.7h-4.7c0,1.8-0.1,2.9-0.1,3.1c-0.3,1.2-0.9,1.8-2.1,1.8c-1.6,0-2.3-1.2-2.3-3.5v-4.5
		h9.2v-5.3c0-2.7-0.5-4.7-1.4-6c-1.3-1.7-3.1-2.6-5.4-2.6c-2.3,0-4.2,0.9-5.5,2.6c-1,1.3-1.4,3.3-1.4,6v8.9c0,2.7,0.5,4.7,1.5,6
		c1.3,1.7,3.2,2.6,5.6,2.6c2.4,0,4.3-0.9,5.6-2.8c0.6-0.8,0.9-1.7,1.1-2.8C133,453.7,133,452.7,133,451.2z"/>
</g>
</svg>
